%TF.GenerationSoftware,KiCad,Pcbnew,(5.1.6)-1*%
%TF.CreationDate,2020-07-21T16:26:21+08:00*%
%TF.ProjectId,Egg_segregator,4567675f-7365-4677-9265-6761746f722e,rev?*%
%TF.SameCoordinates,Original*%
%TF.FileFunction,Legend,Top*%
%TF.FilePolarity,Positive*%
%FSLAX46Y46*%
G04 Gerber Fmt 4.6, Leading zero omitted, Abs format (unit mm)*
G04 Created by KiCad (PCBNEW (5.1.6)-1) date 2020-07-21 16:26:21*
%MOMM*%
%LPD*%
G01*
G04 APERTURE LIST*
%ADD10C,0.300000*%
%ADD11C,0.150000*%
%ADD12C,0.120000*%
%ADD13C,0.200000*%
%ADD14C,0.127000*%
%ADD15C,0.015000*%
%ADD16C,0.050000*%
G04 APERTURE END LIST*
D10*
X182958357Y-112049485D02*
X182958357Y-111549485D01*
X183744071Y-111335200D02*
X183744071Y-112049485D01*
X182244071Y-112049485D01*
X182244071Y-111335200D01*
X182744071Y-110049485D02*
X183958357Y-110049485D01*
X184101214Y-110120914D01*
X184172642Y-110192342D01*
X184244071Y-110335200D01*
X184244071Y-110549485D01*
X184172642Y-110692342D01*
X183672642Y-110049485D02*
X183744071Y-110192342D01*
X183744071Y-110478057D01*
X183672642Y-110620914D01*
X183601214Y-110692342D01*
X183458357Y-110763771D01*
X183029785Y-110763771D01*
X182886928Y-110692342D01*
X182815500Y-110620914D01*
X182744071Y-110478057D01*
X182744071Y-110192342D01*
X182815500Y-110049485D01*
X182744071Y-108692342D02*
X183958357Y-108692342D01*
X184101214Y-108763771D01*
X184172642Y-108835200D01*
X184244071Y-108978057D01*
X184244071Y-109192342D01*
X184172642Y-109335200D01*
X183672642Y-108692342D02*
X183744071Y-108835200D01*
X183744071Y-109120914D01*
X183672642Y-109263771D01*
X183601214Y-109335200D01*
X183458357Y-109406628D01*
X183029785Y-109406628D01*
X182886928Y-109335200D01*
X182815500Y-109263771D01*
X182744071Y-109120914D01*
X182744071Y-108835200D01*
X182815500Y-108692342D01*
X183672642Y-106906628D02*
X183744071Y-106763771D01*
X183744071Y-106478057D01*
X183672642Y-106335200D01*
X183529785Y-106263771D01*
X183458357Y-106263771D01*
X183315500Y-106335200D01*
X183244071Y-106478057D01*
X183244071Y-106692342D01*
X183172642Y-106835200D01*
X183029785Y-106906628D01*
X182958357Y-106906628D01*
X182815500Y-106835200D01*
X182744071Y-106692342D01*
X182744071Y-106478057D01*
X182815500Y-106335200D01*
X183672642Y-105049485D02*
X183744071Y-105192342D01*
X183744071Y-105478057D01*
X183672642Y-105620914D01*
X183529785Y-105692342D01*
X182958357Y-105692342D01*
X182815500Y-105620914D01*
X182744071Y-105478057D01*
X182744071Y-105192342D01*
X182815500Y-105049485D01*
X182958357Y-104978057D01*
X183101214Y-104978057D01*
X183244071Y-105692342D01*
X182744071Y-103692342D02*
X183958357Y-103692342D01*
X184101214Y-103763771D01*
X184172642Y-103835200D01*
X184244071Y-103978057D01*
X184244071Y-104192342D01*
X184172642Y-104335200D01*
X183672642Y-103692342D02*
X183744071Y-103835200D01*
X183744071Y-104120914D01*
X183672642Y-104263771D01*
X183601214Y-104335200D01*
X183458357Y-104406628D01*
X183029785Y-104406628D01*
X182886928Y-104335200D01*
X182815500Y-104263771D01*
X182744071Y-104120914D01*
X182744071Y-103835200D01*
X182815500Y-103692342D01*
X183744071Y-102978057D02*
X182744071Y-102978057D01*
X183029785Y-102978057D02*
X182886928Y-102906628D01*
X182815500Y-102835200D01*
X182744071Y-102692342D01*
X182744071Y-102549485D01*
X183672642Y-101478057D02*
X183744071Y-101620914D01*
X183744071Y-101906628D01*
X183672642Y-102049485D01*
X183529785Y-102120914D01*
X182958357Y-102120914D01*
X182815500Y-102049485D01*
X182744071Y-101906628D01*
X182744071Y-101620914D01*
X182815500Y-101478057D01*
X182958357Y-101406628D01*
X183101214Y-101406628D01*
X183244071Y-102120914D01*
X182744071Y-100120914D02*
X183958357Y-100120914D01*
X184101214Y-100192342D01*
X184172642Y-100263771D01*
X184244071Y-100406628D01*
X184244071Y-100620914D01*
X184172642Y-100763771D01*
X183672642Y-100120914D02*
X183744071Y-100263771D01*
X183744071Y-100549485D01*
X183672642Y-100692342D01*
X183601214Y-100763771D01*
X183458357Y-100835200D01*
X183029785Y-100835200D01*
X182886928Y-100763771D01*
X182815500Y-100692342D01*
X182744071Y-100549485D01*
X182744071Y-100263771D01*
X182815500Y-100120914D01*
X183744071Y-98763771D02*
X182958357Y-98763771D01*
X182815500Y-98835200D01*
X182744071Y-98978057D01*
X182744071Y-99263771D01*
X182815500Y-99406628D01*
X183672642Y-98763771D02*
X183744071Y-98906628D01*
X183744071Y-99263771D01*
X183672642Y-99406628D01*
X183529785Y-99478057D01*
X183386928Y-99478057D01*
X183244071Y-99406628D01*
X183172642Y-99263771D01*
X183172642Y-98906628D01*
X183101214Y-98763771D01*
X182744071Y-98263771D02*
X182744071Y-97692342D01*
X182244071Y-98049485D02*
X183529785Y-98049485D01*
X183672642Y-97978057D01*
X183744071Y-97835200D01*
X183744071Y-97692342D01*
X183744071Y-96978057D02*
X183672642Y-97120914D01*
X183601214Y-97192342D01*
X183458357Y-97263771D01*
X183029785Y-97263771D01*
X182886928Y-97192342D01*
X182815500Y-97120914D01*
X182744071Y-96978057D01*
X182744071Y-96763771D01*
X182815500Y-96620914D01*
X182886928Y-96549485D01*
X183029785Y-96478057D01*
X183458357Y-96478057D01*
X183601214Y-96549485D01*
X183672642Y-96620914D01*
X183744071Y-96763771D01*
X183744071Y-96978057D01*
X183744071Y-95835200D02*
X182744071Y-95835200D01*
X183029785Y-95835200D02*
X182886928Y-95763771D01*
X182815500Y-95692342D01*
X182744071Y-95549485D01*
X182744071Y-95406628D01*
X186294071Y-113263771D02*
X184794071Y-113263771D01*
X185365500Y-113263771D02*
X185294071Y-113120914D01*
X185294071Y-112835200D01*
X185365500Y-112692342D01*
X185436928Y-112620914D01*
X185579785Y-112549485D01*
X186008357Y-112549485D01*
X186151214Y-112620914D01*
X186222642Y-112692342D01*
X186294071Y-112835200D01*
X186294071Y-113120914D01*
X186222642Y-113263771D01*
X185294071Y-112049485D02*
X186294071Y-111692342D01*
X185294071Y-111335200D02*
X186294071Y-111692342D01*
X186651214Y-111835200D01*
X186722642Y-111906628D01*
X186794071Y-112049485D01*
X186151214Y-110763771D02*
X186222642Y-110692342D01*
X186294071Y-110763771D01*
X186222642Y-110835200D01*
X186151214Y-110763771D01*
X186294071Y-110763771D01*
X185365500Y-110763771D02*
X185436928Y-110692342D01*
X185508357Y-110763771D01*
X185436928Y-110835200D01*
X185365500Y-110763771D01*
X185508357Y-110763771D01*
X185865500Y-108978057D02*
X185865500Y-108263771D01*
X186294071Y-109120914D02*
X184794071Y-108620914D01*
X186294071Y-108120914D01*
X186294071Y-107406628D02*
X186222642Y-107549485D01*
X186079785Y-107620914D01*
X184794071Y-107620914D01*
X185294071Y-107049485D02*
X185294071Y-106478057D01*
X186294071Y-106835200D02*
X185008357Y-106835200D01*
X184865500Y-106763771D01*
X184794071Y-106620914D01*
X184794071Y-106478057D01*
X186294071Y-105978057D02*
X185294071Y-105978057D01*
X185579785Y-105978057D02*
X185436928Y-105906628D01*
X185365500Y-105835200D01*
X185294071Y-105692342D01*
X185294071Y-105549485D01*
X186222642Y-104478057D02*
X186294071Y-104620914D01*
X186294071Y-104906628D01*
X186222642Y-105049485D01*
X186079785Y-105120914D01*
X185508357Y-105120914D01*
X185365500Y-105049485D01*
X185294071Y-104906628D01*
X185294071Y-104620914D01*
X185365500Y-104478057D01*
X185508357Y-104406628D01*
X185651214Y-104406628D01*
X185794071Y-105120914D01*
X186294071Y-103120914D02*
X184794071Y-103120914D01*
X186222642Y-103120914D02*
X186294071Y-103263771D01*
X186294071Y-103549485D01*
X186222642Y-103692342D01*
X186151214Y-103763771D01*
X186008357Y-103835200D01*
X185579785Y-103835200D01*
X185436928Y-103763771D01*
X185365500Y-103692342D01*
X185294071Y-103549485D01*
X185294071Y-103263771D01*
X185365500Y-103120914D01*
X185865500Y-101335200D02*
X185865500Y-100620914D01*
X186294071Y-101478057D02*
X184794071Y-100978057D01*
X186294071Y-100478057D01*
X186294071Y-99978057D02*
X184794071Y-99978057D01*
X185365500Y-99978057D02*
X185294071Y-99835200D01*
X185294071Y-99549485D01*
X185365500Y-99406628D01*
X185436928Y-99335200D01*
X185579785Y-99263771D01*
X186008357Y-99263771D01*
X186151214Y-99335200D01*
X186222642Y-99406628D01*
X186294071Y-99549485D01*
X186294071Y-99835200D01*
X186222642Y-99978057D01*
X186294071Y-97978057D02*
X185508357Y-97978057D01*
X185365500Y-98049485D01*
X185294071Y-98192342D01*
X185294071Y-98478057D01*
X185365500Y-98620914D01*
X186222642Y-97978057D02*
X186294071Y-98120914D01*
X186294071Y-98478057D01*
X186222642Y-98620914D01*
X186079785Y-98692342D01*
X185936928Y-98692342D01*
X185794071Y-98620914D01*
X185722642Y-98478057D01*
X185722642Y-98120914D01*
X185651214Y-97978057D01*
X185294071Y-97263771D02*
X186294071Y-97263771D01*
X185436928Y-97263771D02*
X185365500Y-97192342D01*
X185294071Y-97049485D01*
X185294071Y-96835200D01*
X185365500Y-96692342D01*
X185508357Y-96620914D01*
X186294071Y-96620914D01*
X185294071Y-96120914D02*
X185294071Y-95549485D01*
X184794071Y-95906628D02*
X186079785Y-95906628D01*
X186222642Y-95835200D01*
X186294071Y-95692342D01*
X186294071Y-95549485D01*
X186294071Y-94835200D02*
X186222642Y-94978057D01*
X186151214Y-95049485D01*
X186008357Y-95120914D01*
X185579785Y-95120914D01*
X185436928Y-95049485D01*
X185365500Y-94978057D01*
X185294071Y-94835200D01*
X185294071Y-94620914D01*
X185365500Y-94478057D01*
X185436928Y-94406628D01*
X185579785Y-94335200D01*
X186008357Y-94335200D01*
X186151214Y-94406628D01*
X186222642Y-94478057D01*
X186294071Y-94620914D01*
X186294071Y-94835200D01*
D11*
X112522095Y-38496857D02*
X114045904Y-38496857D01*
X117729095Y-38496857D02*
X119252904Y-38496857D01*
X118491000Y-39258761D02*
X118491000Y-37734952D01*
D12*
%TO.C,A1*%
X132077000Y-101597000D02*
X132077000Y-119637000D01*
X175517000Y-101597000D02*
X132077000Y-101597000D01*
X175517000Y-119637000D02*
X175517000Y-101597000D01*
X172847000Y-116967000D02*
X172847000Y-119637000D01*
X137287000Y-116967000D02*
X172847000Y-116967000D01*
X137287000Y-116967000D02*
X137287000Y-119637000D01*
X172847000Y-104267000D02*
X172847000Y-101597000D01*
X134747000Y-104267000D02*
X172847000Y-104267000D01*
X134747000Y-104267000D02*
X134747000Y-101597000D01*
X132077000Y-119637000D02*
X134747000Y-119637000D01*
X137287000Y-119637000D02*
X175517000Y-119637000D01*
X134747000Y-116967000D02*
X134747000Y-119637000D01*
X137287000Y-116967000D02*
X134747000Y-116967000D01*
%TO.C,C1*%
X165683000Y-49141748D02*
X165683000Y-49664252D01*
X164263000Y-49141748D02*
X164263000Y-49664252D01*
%TO.C,C2*%
X155919000Y-49167148D02*
X155919000Y-49689652D01*
X157339000Y-49167148D02*
X157339000Y-49689652D01*
%TO.C,C3*%
X139927698Y-49578000D02*
X139927698Y-48778000D01*
X140327698Y-49178000D02*
X139527698Y-49178000D01*
X131837000Y-47396000D02*
X131837000Y-46330000D01*
X131877000Y-47631000D02*
X131877000Y-46095000D01*
X131917000Y-47811000D02*
X131917000Y-45915000D01*
X131957000Y-47961000D02*
X131957000Y-45765000D01*
X131997000Y-48092000D02*
X131997000Y-45634000D01*
X132037000Y-48209000D02*
X132037000Y-45517000D01*
X132077000Y-48316000D02*
X132077000Y-45410000D01*
X132117000Y-48415000D02*
X132117000Y-45311000D01*
X132157000Y-48508000D02*
X132157000Y-45218000D01*
X132197000Y-48594000D02*
X132197000Y-45132000D01*
X132237000Y-48676000D02*
X132237000Y-45050000D01*
X132277000Y-48753000D02*
X132277000Y-44973000D01*
X132317000Y-48827000D02*
X132317000Y-44899000D01*
X132357000Y-48897000D02*
X132357000Y-44829000D01*
X132397000Y-48965000D02*
X132397000Y-44761000D01*
X132437000Y-49029000D02*
X132437000Y-44697000D01*
X132477000Y-49091000D02*
X132477000Y-44635000D01*
X132517000Y-49150000D02*
X132517000Y-44576000D01*
X132557000Y-49208000D02*
X132557000Y-44518000D01*
X132597000Y-49263000D02*
X132597000Y-44463000D01*
X132637000Y-49317000D02*
X132637000Y-44409000D01*
X132677000Y-49368000D02*
X132677000Y-44358000D01*
X132717000Y-49419000D02*
X132717000Y-44307000D01*
X132757000Y-49467000D02*
X132757000Y-44259000D01*
X132797000Y-49514000D02*
X132797000Y-44212000D01*
X132837000Y-49560000D02*
X132837000Y-44166000D01*
X132877000Y-49604000D02*
X132877000Y-44122000D01*
X132917000Y-49647000D02*
X132917000Y-44079000D01*
X132957000Y-49689000D02*
X132957000Y-44037000D01*
X132997000Y-49730000D02*
X132997000Y-43996000D01*
X133037000Y-49770000D02*
X133037000Y-43956000D01*
X133077000Y-49808000D02*
X133077000Y-43918000D01*
X133117000Y-49846000D02*
X133117000Y-43880000D01*
X133157000Y-45823000D02*
X133157000Y-43844000D01*
X133157000Y-49882000D02*
X133157000Y-47903000D01*
X133197000Y-45823000D02*
X133197000Y-43808000D01*
X133197000Y-49918000D02*
X133197000Y-47903000D01*
X133237000Y-45823000D02*
X133237000Y-43773000D01*
X133237000Y-49953000D02*
X133237000Y-47903000D01*
X133277000Y-45823000D02*
X133277000Y-43739000D01*
X133277000Y-49987000D02*
X133277000Y-47903000D01*
X133317000Y-45823000D02*
X133317000Y-43707000D01*
X133317000Y-50019000D02*
X133317000Y-47903000D01*
X133357000Y-45823000D02*
X133357000Y-43674000D01*
X133357000Y-50052000D02*
X133357000Y-47903000D01*
X133397000Y-45823000D02*
X133397000Y-43643000D01*
X133397000Y-50083000D02*
X133397000Y-47903000D01*
X133437000Y-45823000D02*
X133437000Y-43613000D01*
X133437000Y-50113000D02*
X133437000Y-47903000D01*
X133477000Y-45823000D02*
X133477000Y-43583000D01*
X133477000Y-50143000D02*
X133477000Y-47903000D01*
X133517000Y-45823000D02*
X133517000Y-43554000D01*
X133517000Y-50172000D02*
X133517000Y-47903000D01*
X133557000Y-45823000D02*
X133557000Y-43525000D01*
X133557000Y-50201000D02*
X133557000Y-47903000D01*
X133597000Y-45823000D02*
X133597000Y-43498000D01*
X133597000Y-50228000D02*
X133597000Y-47903000D01*
X133637000Y-45823000D02*
X133637000Y-43471000D01*
X133637000Y-50255000D02*
X133637000Y-47903000D01*
X133677000Y-45823000D02*
X133677000Y-43445000D01*
X133677000Y-50281000D02*
X133677000Y-47903000D01*
X133717000Y-45823000D02*
X133717000Y-43419000D01*
X133717000Y-50307000D02*
X133717000Y-47903000D01*
X133757000Y-45823000D02*
X133757000Y-43394000D01*
X133757000Y-50332000D02*
X133757000Y-47903000D01*
X133797000Y-45823000D02*
X133797000Y-43370000D01*
X133797000Y-50356000D02*
X133797000Y-47903000D01*
X133837000Y-45823000D02*
X133837000Y-43346000D01*
X133837000Y-50380000D02*
X133837000Y-47903000D01*
X133877000Y-45823000D02*
X133877000Y-43323000D01*
X133877000Y-50403000D02*
X133877000Y-47903000D01*
X133917000Y-45823000D02*
X133917000Y-43301000D01*
X133917000Y-50425000D02*
X133917000Y-47903000D01*
X133957000Y-45823000D02*
X133957000Y-43279000D01*
X133957000Y-50447000D02*
X133957000Y-47903000D01*
X133997000Y-45823000D02*
X133997000Y-43257000D01*
X133997000Y-50469000D02*
X133997000Y-47903000D01*
X134037000Y-45823000D02*
X134037000Y-43236000D01*
X134037000Y-50490000D02*
X134037000Y-47903000D01*
X134077000Y-45823000D02*
X134077000Y-43216000D01*
X134077000Y-50510000D02*
X134077000Y-47903000D01*
X134117000Y-45823000D02*
X134117000Y-43197000D01*
X134117000Y-50529000D02*
X134117000Y-47903000D01*
X134157000Y-45823000D02*
X134157000Y-43177000D01*
X134157000Y-50549000D02*
X134157000Y-47903000D01*
X134197000Y-45823000D02*
X134197000Y-43159000D01*
X134197000Y-50567000D02*
X134197000Y-47903000D01*
X134237000Y-45823000D02*
X134237000Y-43141000D01*
X134237000Y-50585000D02*
X134237000Y-47903000D01*
X134277000Y-45823000D02*
X134277000Y-43123000D01*
X134277000Y-50603000D02*
X134277000Y-47903000D01*
X134317000Y-45823000D02*
X134317000Y-43106000D01*
X134317000Y-50620000D02*
X134317000Y-47903000D01*
X134357000Y-45823000D02*
X134357000Y-43089000D01*
X134357000Y-50637000D02*
X134357000Y-47903000D01*
X134397000Y-45823000D02*
X134397000Y-43073000D01*
X134397000Y-50653000D02*
X134397000Y-47903000D01*
X134437000Y-45823000D02*
X134437000Y-43058000D01*
X134437000Y-50668000D02*
X134437000Y-47903000D01*
X134477000Y-45823000D02*
X134477000Y-43042000D01*
X134477000Y-50684000D02*
X134477000Y-47903000D01*
X134517000Y-45823000D02*
X134517000Y-43028000D01*
X134517000Y-50698000D02*
X134517000Y-47903000D01*
X134557000Y-45823000D02*
X134557000Y-43013000D01*
X134557000Y-50713000D02*
X134557000Y-47903000D01*
X134597000Y-45823000D02*
X134597000Y-43000000D01*
X134597000Y-50726000D02*
X134597000Y-47903000D01*
X134637000Y-45823000D02*
X134637000Y-42986000D01*
X134637000Y-50740000D02*
X134637000Y-47903000D01*
X134677000Y-45823000D02*
X134677000Y-42974000D01*
X134677000Y-50752000D02*
X134677000Y-47903000D01*
X134717000Y-45823000D02*
X134717000Y-42961000D01*
X134717000Y-50765000D02*
X134717000Y-47903000D01*
X134757000Y-45823000D02*
X134757000Y-42949000D01*
X134757000Y-50777000D02*
X134757000Y-47903000D01*
X134797000Y-45823000D02*
X134797000Y-42938000D01*
X134797000Y-50788000D02*
X134797000Y-47903000D01*
X134837000Y-45823000D02*
X134837000Y-42927000D01*
X134837000Y-50799000D02*
X134837000Y-47903000D01*
X134877000Y-45823000D02*
X134877000Y-42916000D01*
X134877000Y-50810000D02*
X134877000Y-47903000D01*
X134917000Y-45823000D02*
X134917000Y-42906000D01*
X134917000Y-50820000D02*
X134917000Y-47903000D01*
X134957000Y-45823000D02*
X134957000Y-42896000D01*
X134957000Y-50830000D02*
X134957000Y-47903000D01*
X134997000Y-45823000D02*
X134997000Y-42887000D01*
X134997000Y-50839000D02*
X134997000Y-47903000D01*
X135037000Y-45823000D02*
X135037000Y-42878000D01*
X135037000Y-50848000D02*
X135037000Y-47903000D01*
X135077000Y-45823000D02*
X135077000Y-42869000D01*
X135077000Y-50857000D02*
X135077000Y-47903000D01*
X135117000Y-45823000D02*
X135117000Y-42861000D01*
X135117000Y-50865000D02*
X135117000Y-47903000D01*
X135157000Y-45823000D02*
X135157000Y-42853000D01*
X135157000Y-50873000D02*
X135157000Y-47903000D01*
X135197000Y-45823000D02*
X135197000Y-42846000D01*
X135197000Y-50880000D02*
X135197000Y-47903000D01*
X135238000Y-50887000D02*
X135238000Y-42839000D01*
X135278000Y-50893000D02*
X135278000Y-42833000D01*
X135318000Y-50900000D02*
X135318000Y-42826000D01*
X135358000Y-50905000D02*
X135358000Y-42821000D01*
X135398000Y-50911000D02*
X135398000Y-42815000D01*
X135438000Y-50915000D02*
X135438000Y-42811000D01*
X135478000Y-50920000D02*
X135478000Y-42806000D01*
X135518000Y-50924000D02*
X135518000Y-42802000D01*
X135558000Y-50928000D02*
X135558000Y-42798000D01*
X135598000Y-50931000D02*
X135598000Y-42795000D01*
X135638000Y-50934000D02*
X135638000Y-42792000D01*
X135678000Y-50937000D02*
X135678000Y-42789000D01*
X135718000Y-50939000D02*
X135718000Y-42787000D01*
X135758000Y-50940000D02*
X135758000Y-42786000D01*
X135798000Y-50942000D02*
X135798000Y-42784000D01*
X135838000Y-50943000D02*
X135838000Y-42783000D01*
X135878000Y-50943000D02*
X135878000Y-42783000D01*
X135918000Y-50943000D02*
X135918000Y-42783000D01*
X140038000Y-46863000D02*
G75*
G03*
X140038000Y-46863000I-4120000J0D01*
G01*
D13*
%TO.C,D1*%
X143771000Y-39624000D02*
G75*
G03*
X143771000Y-39624000I-100000J0D01*
G01*
D14*
X144901000Y-42734000D02*
X153041000Y-42734000D01*
X144901000Y-36514000D02*
X153041000Y-36514000D01*
D12*
%TO.C,J1*%
X120777000Y-41021000D02*
X110617000Y-41021000D01*
X120777000Y-48641000D02*
X120777000Y-41021000D01*
X110617000Y-48641000D02*
X120777000Y-48641000D01*
X110617000Y-41021000D02*
X110617000Y-48641000D01*
X110617000Y-42291000D02*
X120777000Y-42291000D01*
%TO.C,J2*%
X106486000Y-103251000D02*
X103826000Y-103251000D01*
X106486000Y-103251000D02*
X106486000Y-95571000D01*
X106486000Y-95571000D02*
X103826000Y-95571000D01*
X103826000Y-103251000D02*
X103826000Y-95571000D01*
X103826000Y-105851000D02*
X103826000Y-104521000D01*
X105156000Y-105851000D02*
X103826000Y-105851000D01*
%TO.C,J5*%
X106486000Y-121285000D02*
X103826000Y-121285000D01*
X106486000Y-121285000D02*
X106486000Y-108525000D01*
X106486000Y-108525000D02*
X103826000Y-108525000D01*
X103826000Y-121285000D02*
X103826000Y-108525000D01*
X103826000Y-123885000D02*
X103826000Y-122555000D01*
X105156000Y-123885000D02*
X103826000Y-123885000D01*
%TO.C,J6*%
X153102000Y-122631000D02*
X153102000Y-121301000D01*
X153102000Y-121301000D02*
X154432000Y-121301000D01*
X155702000Y-121301000D02*
X160842000Y-121301000D01*
X160842000Y-123961000D02*
X160842000Y-121301000D01*
X155702000Y-123961000D02*
X160842000Y-123961000D01*
X155702000Y-123961000D02*
X155702000Y-121301000D01*
%TO.C,J7*%
X168148000Y-123961000D02*
X168148000Y-121301000D01*
X168148000Y-123961000D02*
X173288000Y-123961000D01*
X173288000Y-123961000D02*
X173288000Y-121301000D01*
X168148000Y-121301000D02*
X173288000Y-121301000D01*
X165548000Y-121301000D02*
X166878000Y-121301000D01*
X165548000Y-122631000D02*
X165548000Y-121301000D01*
%TO.C,J8*%
X132401000Y-97409000D02*
X132401000Y-96079000D01*
X132401000Y-96079000D02*
X133731000Y-96079000D01*
X135001000Y-96079000D02*
X175701000Y-96079000D01*
X175701000Y-98739000D02*
X175701000Y-96079000D01*
X135001000Y-98739000D02*
X175701000Y-98739000D01*
X135001000Y-98739000D02*
X135001000Y-96079000D01*
%TO.C,L1*%
X155063000Y-46321000D02*
X155063000Y-43121000D01*
X165663000Y-46321000D02*
X155063000Y-46321000D01*
X165663000Y-43121000D02*
X165663000Y-46321000D01*
X165663000Y-35721000D02*
X165663000Y-38921000D01*
X155063000Y-35721000D02*
X165663000Y-35721000D01*
X155063000Y-38921000D02*
X155063000Y-35721000D01*
%TO.C,R1*%
X185676000Y-79038267D02*
X185676000Y-78695733D01*
X184656000Y-79038267D02*
X184656000Y-78695733D01*
%TO.C,R2*%
X181735000Y-79038267D02*
X181735000Y-78695733D01*
X182755000Y-79038267D02*
X182755000Y-78695733D01*
%TO.C,R3*%
X179834000Y-79038267D02*
X179834000Y-78695733D01*
X178814000Y-79038267D02*
X178814000Y-78695733D01*
%TO.C,R4*%
X154053000Y-49231733D02*
X154053000Y-49574267D01*
X153033000Y-49231733D02*
X153033000Y-49574267D01*
%TO.C,RV1*%
X146215000Y-43794400D02*
X149320000Y-43794400D01*
X144580000Y-43794400D02*
X145225000Y-43794400D01*
X146215000Y-50744400D02*
X149320000Y-50744400D01*
X144580000Y-50744400D02*
X145225000Y-50744400D01*
X149320000Y-50744400D02*
X149320000Y-43794400D01*
X144580000Y-50744400D02*
X144580000Y-43794400D01*
%TO.C,SW1*%
X179076000Y-72145900D02*
X179076000Y-73645900D01*
X180326000Y-76145900D02*
X184826000Y-76145900D01*
X186076000Y-73645900D02*
X186076000Y-72145900D01*
X184826000Y-69645900D02*
X180326000Y-69645900D01*
%TO.C,SW2*%
X184891000Y-61508900D02*
X180391000Y-61508900D01*
X186141000Y-65508900D02*
X186141000Y-64008900D01*
X180391000Y-68008900D02*
X184891000Y-68008900D01*
X179141000Y-64008900D02*
X179141000Y-65508900D01*
%TO.C,SW3*%
X179203000Y-55762900D02*
X179203000Y-57262900D01*
X180453000Y-59762900D02*
X184953000Y-59762900D01*
X186203000Y-57262900D02*
X186203000Y-55762900D01*
X184953000Y-53262900D02*
X180453000Y-53262900D01*
%TO.C,SW4*%
X127314000Y-48828000D02*
X125984000Y-48828000D01*
X127314000Y-47498000D02*
X127314000Y-48828000D01*
X127314000Y-46228000D02*
X124654000Y-46228000D01*
X124654000Y-46228000D02*
X124654000Y-41088000D01*
X127314000Y-46228000D02*
X127314000Y-41088000D01*
X127314000Y-41088000D02*
X124654000Y-41088000D01*
D14*
%TO.C,U1*%
X94869000Y-52070000D02*
X94869000Y-92202000D01*
X172593000Y-52070000D02*
X172593000Y-92202000D01*
X94869000Y-52070000D02*
X172593000Y-52070000D01*
X94869000Y-92202000D02*
X172593000Y-92202000D01*
D12*
%TO.C,U2*%
X161009000Y-48174000D02*
X158559000Y-48174000D01*
X159209000Y-51394000D02*
X161009000Y-51394000D01*
%TO.C,A2*%
X128617000Y-93036000D02*
X110397000Y-93036000D01*
X110397000Y-93036000D02*
X110397000Y-127036000D01*
X128617000Y-93036000D02*
X128617000Y-127036000D01*
X110397000Y-127036000D02*
X128617000Y-127036000D01*
%TO.C,J10*%
X136516000Y-122631000D02*
X136516000Y-121301000D01*
X136516000Y-121301000D02*
X137846000Y-121301000D01*
X139116000Y-121301000D02*
X149336000Y-121301000D01*
X149336000Y-123961000D02*
X149336000Y-121301000D01*
X139116000Y-123961000D02*
X149336000Y-123961000D01*
X139116000Y-123961000D02*
X139116000Y-121301000D01*
%TO.C,A1*%
D11*
X131103666Y-111331285D02*
X131103666Y-110855095D01*
X131389380Y-111426523D02*
X130389380Y-111093190D01*
X131389380Y-110759857D01*
X131389380Y-109902714D02*
X131389380Y-110474142D01*
X131389380Y-110188428D02*
X130389380Y-110188428D01*
X130532238Y-110283666D01*
X130627476Y-110378904D01*
X130675095Y-110474142D01*
%TO.C,MH4*%
X183666666Y-119452380D02*
X183666666Y-118452380D01*
X184000000Y-119166666D01*
X184333333Y-118452380D01*
X184333333Y-119452380D01*
X184809523Y-119452380D02*
X184809523Y-118452380D01*
X184809523Y-118928571D02*
X185380952Y-118928571D01*
X185380952Y-119452380D02*
X185380952Y-118452380D01*
X186285714Y-118785714D02*
X186285714Y-119452380D01*
X186047619Y-118404761D02*
X185809523Y-119119047D01*
X186428571Y-119119047D01*
%TO.C,MH2*%
X183666666Y-36452380D02*
X183666666Y-35452380D01*
X184000000Y-36166666D01*
X184333333Y-35452380D01*
X184333333Y-36452380D01*
X184809523Y-36452380D02*
X184809523Y-35452380D01*
X184809523Y-35928571D02*
X185380952Y-35928571D01*
X185380952Y-36452380D02*
X185380952Y-35452380D01*
X185809523Y-35547619D02*
X185857142Y-35500000D01*
X185952380Y-35452380D01*
X186190476Y-35452380D01*
X186285714Y-35500000D01*
X186333333Y-35547619D01*
X186380952Y-35642857D01*
X186380952Y-35738095D01*
X186333333Y-35880952D01*
X185761904Y-36452380D01*
X186380952Y-36452380D01*
%TO.C,MH3*%
X94666666Y-119452380D02*
X94666666Y-118452380D01*
X95000000Y-119166666D01*
X95333333Y-118452380D01*
X95333333Y-119452380D01*
X95809523Y-119452380D02*
X95809523Y-118452380D01*
X95809523Y-118928571D02*
X96380952Y-118928571D01*
X96380952Y-119452380D02*
X96380952Y-118452380D01*
X96761904Y-118452380D02*
X97380952Y-118452380D01*
X97047619Y-118833333D01*
X97190476Y-118833333D01*
X97285714Y-118880952D01*
X97333333Y-118928571D01*
X97380952Y-119023809D01*
X97380952Y-119261904D01*
X97333333Y-119357142D01*
X97285714Y-119404761D01*
X97190476Y-119452380D01*
X96904761Y-119452380D01*
X96809523Y-119404761D01*
X96761904Y-119357142D01*
%TO.C,MH1*%
X94666666Y-36452380D02*
X94666666Y-35452380D01*
X95000000Y-36166666D01*
X95333333Y-35452380D01*
X95333333Y-36452380D01*
X95809523Y-36452380D02*
X95809523Y-35452380D01*
X95809523Y-35928571D02*
X96380952Y-35928571D01*
X96380952Y-36452380D02*
X96380952Y-35452380D01*
X97380952Y-36452380D02*
X96809523Y-36452380D01*
X97095238Y-36452380D02*
X97095238Y-35452380D01*
X97000000Y-35595238D01*
X96904761Y-35690476D01*
X96809523Y-35738095D01*
%TO.C,C1*%
X163679142Y-49595066D02*
X163726761Y-49642685D01*
X163774380Y-49785542D01*
X163774380Y-49880780D01*
X163726761Y-50023638D01*
X163631523Y-50118876D01*
X163536285Y-50166495D01*
X163345809Y-50214114D01*
X163202952Y-50214114D01*
X163012476Y-50166495D01*
X162917238Y-50118876D01*
X162822000Y-50023638D01*
X162774380Y-49880780D01*
X162774380Y-49785542D01*
X162822000Y-49642685D01*
X162869619Y-49595066D01*
X163774380Y-48642685D02*
X163774380Y-49214114D01*
X163774380Y-48928400D02*
X162774380Y-48928400D01*
X162917238Y-49023638D01*
X163012476Y-49118876D01*
X163060095Y-49214114D01*
%TO.C,C2*%
X155398642Y-49607766D02*
X155446261Y-49655385D01*
X155493880Y-49798242D01*
X155493880Y-49893480D01*
X155446261Y-50036338D01*
X155351023Y-50131576D01*
X155255785Y-50179195D01*
X155065309Y-50226814D01*
X154922452Y-50226814D01*
X154731976Y-50179195D01*
X154636738Y-50131576D01*
X154541500Y-50036338D01*
X154493880Y-49893480D01*
X154493880Y-49798242D01*
X154541500Y-49655385D01*
X154589119Y-49607766D01*
X154589119Y-49226814D02*
X154541500Y-49179195D01*
X154493880Y-49083957D01*
X154493880Y-48845861D01*
X154541500Y-48750623D01*
X154589119Y-48703004D01*
X154684357Y-48655385D01*
X154779595Y-48655385D01*
X154922452Y-48703004D01*
X155493880Y-49274433D01*
X155493880Y-48655385D01*
%TO.C,C3*%
X132014933Y-43232342D02*
X131967314Y-43279961D01*
X131824457Y-43327580D01*
X131729219Y-43327580D01*
X131586361Y-43279961D01*
X131491123Y-43184723D01*
X131443504Y-43089485D01*
X131395885Y-42899009D01*
X131395885Y-42756152D01*
X131443504Y-42565676D01*
X131491123Y-42470438D01*
X131586361Y-42375200D01*
X131729219Y-42327580D01*
X131824457Y-42327580D01*
X131967314Y-42375200D01*
X132014933Y-42422819D01*
X132348266Y-42327580D02*
X132967314Y-42327580D01*
X132633980Y-42708533D01*
X132776838Y-42708533D01*
X132872076Y-42756152D01*
X132919695Y-42803771D01*
X132967314Y-42899009D01*
X132967314Y-43137104D01*
X132919695Y-43232342D01*
X132872076Y-43279961D01*
X132776838Y-43327580D01*
X132491123Y-43327580D01*
X132395885Y-43279961D01*
X132348266Y-43232342D01*
%TO.C,D1*%
D15*
X141755904Y-37663380D02*
X141755904Y-36663380D01*
X141994000Y-36663380D01*
X142136857Y-36711000D01*
X142232095Y-36806238D01*
X142279714Y-36901476D01*
X142327333Y-37091952D01*
X142327333Y-37234809D01*
X142279714Y-37425285D01*
X142232095Y-37520523D01*
X142136857Y-37615761D01*
X141994000Y-37663380D01*
X141755904Y-37663380D01*
X143279714Y-37663380D02*
X142708285Y-37663380D01*
X142994000Y-37663380D02*
X142994000Y-36663380D01*
X142898761Y-36806238D01*
X142803523Y-36901476D01*
X142708285Y-36949095D01*
%TO.C,J1*%
D11*
X115363666Y-49363380D02*
X115363666Y-50077666D01*
X115316047Y-50220523D01*
X115220809Y-50315761D01*
X115077952Y-50363380D01*
X114982714Y-50363380D01*
X116363666Y-50363380D02*
X115792238Y-50363380D01*
X116077952Y-50363380D02*
X116077952Y-49363380D01*
X115982714Y-49506238D01*
X115887476Y-49601476D01*
X115792238Y-49649095D01*
%TO.C,J2*%
X102028666Y-103592380D02*
X102028666Y-104306666D01*
X101981047Y-104449523D01*
X101885809Y-104544761D01*
X101742952Y-104592380D01*
X101647714Y-104592380D01*
X102457238Y-103687619D02*
X102504857Y-103640000D01*
X102600095Y-103592380D01*
X102838190Y-103592380D01*
X102933428Y-103640000D01*
X102981047Y-103687619D01*
X103028666Y-103782857D01*
X103028666Y-103878095D01*
X102981047Y-104020952D01*
X102409619Y-104592380D01*
X103028666Y-104592380D01*
%TO.C,J5*%
X101774666Y-121753380D02*
X101774666Y-122467666D01*
X101727047Y-122610523D01*
X101631809Y-122705761D01*
X101488952Y-122753380D01*
X101393714Y-122753380D01*
X102727047Y-121753380D02*
X102250857Y-121753380D01*
X102203238Y-122229571D01*
X102250857Y-122181952D01*
X102346095Y-122134333D01*
X102584190Y-122134333D01*
X102679428Y-122181952D01*
X102727047Y-122229571D01*
X102774666Y-122324809D01*
X102774666Y-122562904D01*
X102727047Y-122658142D01*
X102679428Y-122705761D01*
X102584190Y-122753380D01*
X102346095Y-122753380D01*
X102250857Y-122705761D01*
X102203238Y-122658142D01*
%TO.C,J6*%
X151114380Y-122964333D02*
X151828666Y-122964333D01*
X151971523Y-123011952D01*
X152066761Y-123107190D01*
X152114380Y-123250047D01*
X152114380Y-123345285D01*
X151114380Y-122059571D02*
X151114380Y-122250047D01*
X151162000Y-122345285D01*
X151209619Y-122392904D01*
X151352476Y-122488142D01*
X151542952Y-122535761D01*
X151923904Y-122535761D01*
X152019142Y-122488142D01*
X152066761Y-122440523D01*
X152114380Y-122345285D01*
X152114380Y-122154809D01*
X152066761Y-122059571D01*
X152019142Y-122011952D01*
X151923904Y-121964333D01*
X151685809Y-121964333D01*
X151590571Y-122011952D01*
X151542952Y-122059571D01*
X151495333Y-122154809D01*
X151495333Y-122345285D01*
X151542952Y-122440523D01*
X151590571Y-122488142D01*
X151685809Y-122535761D01*
%TO.C,J7*%
X163560380Y-122964333D02*
X164274666Y-122964333D01*
X164417523Y-123011952D01*
X164512761Y-123107190D01*
X164560380Y-123250047D01*
X164560380Y-123345285D01*
X163560380Y-122583380D02*
X163560380Y-121916714D01*
X164560380Y-122345285D01*
%TO.C,J8*%
X130413380Y-97742333D02*
X131127666Y-97742333D01*
X131270523Y-97789952D01*
X131365761Y-97885190D01*
X131413380Y-98028047D01*
X131413380Y-98123285D01*
X130841952Y-97123285D02*
X130794333Y-97218523D01*
X130746714Y-97266142D01*
X130651476Y-97313761D01*
X130603857Y-97313761D01*
X130508619Y-97266142D01*
X130461000Y-97218523D01*
X130413380Y-97123285D01*
X130413380Y-96932809D01*
X130461000Y-96837571D01*
X130508619Y-96789952D01*
X130603857Y-96742333D01*
X130651476Y-96742333D01*
X130746714Y-96789952D01*
X130794333Y-96837571D01*
X130841952Y-96932809D01*
X130841952Y-97123285D01*
X130889571Y-97218523D01*
X130937190Y-97266142D01*
X131032428Y-97313761D01*
X131222904Y-97313761D01*
X131318142Y-97266142D01*
X131365761Y-97218523D01*
X131413380Y-97123285D01*
X131413380Y-96932809D01*
X131365761Y-96837571D01*
X131318142Y-96789952D01*
X131222904Y-96742333D01*
X131032428Y-96742333D01*
X130937190Y-96789952D01*
X130889571Y-96837571D01*
X130841952Y-96932809D01*
%TO.C,L1*%
X168070333Y-38425380D02*
X167594142Y-38425380D01*
X167594142Y-37425380D01*
X168927476Y-38425380D02*
X168356047Y-38425380D01*
X168641761Y-38425380D02*
X168641761Y-37425380D01*
X168546523Y-37568238D01*
X168451285Y-37663476D01*
X168356047Y-37711095D01*
%TO.C,R1*%
X187066180Y-78881266D02*
X186589990Y-79214600D01*
X187066180Y-79452695D02*
X186066180Y-79452695D01*
X186066180Y-79071742D01*
X186113800Y-78976504D01*
X186161419Y-78928885D01*
X186256657Y-78881266D01*
X186399514Y-78881266D01*
X186494752Y-78928885D01*
X186542371Y-78976504D01*
X186589990Y-79071742D01*
X186589990Y-79452695D01*
X187066180Y-77928885D02*
X187066180Y-78500314D01*
X187066180Y-78214600D02*
X186066180Y-78214600D01*
X186209038Y-78309838D01*
X186304276Y-78405076D01*
X186351895Y-78500314D01*
%TO.C,R2*%
X184170580Y-78982866D02*
X183694390Y-79316200D01*
X184170580Y-79554295D02*
X183170580Y-79554295D01*
X183170580Y-79173342D01*
X183218200Y-79078104D01*
X183265819Y-79030485D01*
X183361057Y-78982866D01*
X183503914Y-78982866D01*
X183599152Y-79030485D01*
X183646771Y-79078104D01*
X183694390Y-79173342D01*
X183694390Y-79554295D01*
X183265819Y-78601914D02*
X183218200Y-78554295D01*
X183170580Y-78459057D01*
X183170580Y-78220961D01*
X183218200Y-78125723D01*
X183265819Y-78078104D01*
X183361057Y-78030485D01*
X183456295Y-78030485D01*
X183599152Y-78078104D01*
X184170580Y-78649533D01*
X184170580Y-78030485D01*
%TO.C,R3*%
X181274980Y-79084466D02*
X180798790Y-79417800D01*
X181274980Y-79655895D02*
X180274980Y-79655895D01*
X180274980Y-79274942D01*
X180322600Y-79179704D01*
X180370219Y-79132085D01*
X180465457Y-79084466D01*
X180608314Y-79084466D01*
X180703552Y-79132085D01*
X180751171Y-79179704D01*
X180798790Y-79274942D01*
X180798790Y-79655895D01*
X180274980Y-78751133D02*
X180274980Y-78132085D01*
X180655933Y-78465419D01*
X180655933Y-78322561D01*
X180703552Y-78227323D01*
X180751171Y-78179704D01*
X180846409Y-78132085D01*
X181084504Y-78132085D01*
X181179742Y-78179704D01*
X181227361Y-78227323D01*
X181274980Y-78322561D01*
X181274980Y-78608276D01*
X181227361Y-78703514D01*
X181179742Y-78751133D01*
%TO.C,R4*%
X152598380Y-49506166D02*
X152122190Y-49839500D01*
X152598380Y-50077595D02*
X151598380Y-50077595D01*
X151598380Y-49696642D01*
X151646000Y-49601404D01*
X151693619Y-49553785D01*
X151788857Y-49506166D01*
X151931714Y-49506166D01*
X152026952Y-49553785D01*
X152074571Y-49601404D01*
X152122190Y-49696642D01*
X152122190Y-50077595D01*
X151931714Y-48649023D02*
X152598380Y-48649023D01*
X151550761Y-48887119D02*
X152265047Y-49125214D01*
X152265047Y-48506166D01*
%TO.C,RV1*%
X143886380Y-49515638D02*
X143410190Y-49848971D01*
X143886380Y-50087066D02*
X142886380Y-50087066D01*
X142886380Y-49706114D01*
X142934000Y-49610876D01*
X142981619Y-49563257D01*
X143076857Y-49515638D01*
X143219714Y-49515638D01*
X143314952Y-49563257D01*
X143362571Y-49610876D01*
X143410190Y-49706114D01*
X143410190Y-50087066D01*
X142886380Y-49229923D02*
X143886380Y-48896590D01*
X142886380Y-48563257D01*
X143886380Y-47706114D02*
X143886380Y-48277542D01*
X143886380Y-47991828D02*
X142886380Y-47991828D01*
X143029238Y-48087066D01*
X143124476Y-48182304D01*
X143172095Y-48277542D01*
%TO.C,SW1*%
X189151761Y-74193233D02*
X189199380Y-74050376D01*
X189199380Y-73812280D01*
X189151761Y-73717042D01*
X189104142Y-73669423D01*
X189008904Y-73621804D01*
X188913666Y-73621804D01*
X188818428Y-73669423D01*
X188770809Y-73717042D01*
X188723190Y-73812280D01*
X188675571Y-74002757D01*
X188627952Y-74097995D01*
X188580333Y-74145614D01*
X188485095Y-74193233D01*
X188389857Y-74193233D01*
X188294619Y-74145614D01*
X188247000Y-74097995D01*
X188199380Y-74002757D01*
X188199380Y-73764661D01*
X188247000Y-73621804D01*
X188199380Y-73288471D02*
X189199380Y-73050376D01*
X188485095Y-72859900D01*
X189199380Y-72669423D01*
X188199380Y-72431328D01*
X189199380Y-71526566D02*
X189199380Y-72097995D01*
X189199380Y-71812280D02*
X188199380Y-71812280D01*
X188342238Y-71907519D01*
X188437476Y-72002757D01*
X188485095Y-72097995D01*
%TO.C,SW2*%
X189151762Y-65684234D02*
X189199381Y-65541377D01*
X189199381Y-65303281D01*
X189151762Y-65208043D01*
X189104143Y-65160424D01*
X189008905Y-65112805D01*
X188913667Y-65112805D01*
X188818429Y-65160424D01*
X188770810Y-65208043D01*
X188723191Y-65303281D01*
X188675572Y-65493758D01*
X188627953Y-65588996D01*
X188580334Y-65636615D01*
X188485096Y-65684234D01*
X188389858Y-65684234D01*
X188294620Y-65636615D01*
X188247001Y-65588996D01*
X188199381Y-65493758D01*
X188199381Y-65255662D01*
X188247001Y-65112805D01*
X188199381Y-64779472D02*
X189199381Y-64541377D01*
X188485096Y-64350901D01*
X189199381Y-64160424D01*
X188199381Y-63922329D01*
X188294620Y-63588996D02*
X188247001Y-63541377D01*
X188199381Y-63446139D01*
X188199381Y-63208043D01*
X188247001Y-63112805D01*
X188294620Y-63065186D01*
X188389858Y-63017567D01*
X188485096Y-63017567D01*
X188627953Y-63065186D01*
X189199381Y-63636615D01*
X189199381Y-63017567D01*
%TO.C,SW3*%
X189278761Y-57556233D02*
X189326380Y-57413376D01*
X189326380Y-57175280D01*
X189278761Y-57080042D01*
X189231142Y-57032423D01*
X189135904Y-56984804D01*
X189040666Y-56984804D01*
X188945428Y-57032423D01*
X188897809Y-57080042D01*
X188850190Y-57175280D01*
X188802571Y-57365757D01*
X188754952Y-57460995D01*
X188707333Y-57508614D01*
X188612095Y-57556233D01*
X188516857Y-57556233D01*
X188421619Y-57508614D01*
X188374000Y-57460995D01*
X188326380Y-57365757D01*
X188326380Y-57127661D01*
X188374000Y-56984804D01*
X188326380Y-56651471D02*
X189326380Y-56413376D01*
X188612095Y-56222900D01*
X189326380Y-56032423D01*
X188326380Y-55794328D01*
X188326380Y-55508614D02*
X188326380Y-54889566D01*
X188707333Y-55222900D01*
X188707333Y-55080042D01*
X188754952Y-54984804D01*
X188802571Y-54937185D01*
X188897809Y-54889566D01*
X189135904Y-54889566D01*
X189231142Y-54937185D01*
X189278761Y-54984804D01*
X189326380Y-55080042D01*
X189326380Y-55365757D01*
X189278761Y-55460995D01*
X189231142Y-55508614D01*
%TO.C,SW4*%
X124650666Y-50232761D02*
X124793523Y-50280380D01*
X125031619Y-50280380D01*
X125126857Y-50232761D01*
X125174476Y-50185142D01*
X125222095Y-50089904D01*
X125222095Y-49994666D01*
X125174476Y-49899428D01*
X125126857Y-49851809D01*
X125031619Y-49804190D01*
X124841142Y-49756571D01*
X124745904Y-49708952D01*
X124698285Y-49661333D01*
X124650666Y-49566095D01*
X124650666Y-49470857D01*
X124698285Y-49375619D01*
X124745904Y-49328000D01*
X124841142Y-49280380D01*
X125079238Y-49280380D01*
X125222095Y-49328000D01*
X125555428Y-49280380D02*
X125793523Y-50280380D01*
X125984000Y-49566095D01*
X126174476Y-50280380D01*
X126412571Y-49280380D01*
X127222095Y-49613714D02*
X127222095Y-50280380D01*
X126984000Y-49232761D02*
X126745904Y-49947047D01*
X127364952Y-49947047D01*
%TO.C,U1*%
D16*
X133045285Y-71588380D02*
X133045285Y-72397904D01*
X133088142Y-72493142D01*
X133131000Y-72540761D01*
X133216714Y-72588380D01*
X133388142Y-72588380D01*
X133473857Y-72540761D01*
X133516714Y-72493142D01*
X133559571Y-72397904D01*
X133559571Y-71588380D01*
X134459571Y-72588380D02*
X133945285Y-72588380D01*
X134202428Y-72588380D02*
X134202428Y-71588380D01*
X134116714Y-71731238D01*
X134031000Y-71826476D01*
X133945285Y-71874095D01*
X128759571Y-72064571D02*
X128888142Y-72112190D01*
X128931000Y-72159809D01*
X128973857Y-72255047D01*
X128973857Y-72397904D01*
X128931000Y-72493142D01*
X128888142Y-72540761D01*
X128802428Y-72588380D01*
X128459571Y-72588380D01*
X128459571Y-71588380D01*
X128759571Y-71588380D01*
X128845285Y-71636000D01*
X128888142Y-71683619D01*
X128931000Y-71778857D01*
X128931000Y-71874095D01*
X128888142Y-71969333D01*
X128845285Y-72016952D01*
X128759571Y-72064571D01*
X128459571Y-72064571D01*
X129359571Y-72588380D02*
X129359571Y-71588380D01*
X129873857Y-72588380D02*
X129488142Y-72016952D01*
X129873857Y-71588380D02*
X129359571Y-72159809D01*
X130259571Y-72207428D02*
X130945285Y-72207428D01*
X131845285Y-72588380D02*
X131331000Y-72588380D01*
X131588142Y-72588380D02*
X131588142Y-71588380D01*
X131502428Y-71731238D01*
X131416714Y-71826476D01*
X131331000Y-71874095D01*
X132359571Y-72016952D02*
X132273857Y-71969333D01*
X132231000Y-71921714D01*
X132188142Y-71826476D01*
X132188142Y-71778857D01*
X132231000Y-71683619D01*
X132273857Y-71636000D01*
X132359571Y-71588380D01*
X132531000Y-71588380D01*
X132616714Y-71636000D01*
X132659571Y-71683619D01*
X132702428Y-71778857D01*
X132702428Y-71826476D01*
X132659571Y-71921714D01*
X132616714Y-71969333D01*
X132531000Y-72016952D01*
X132359571Y-72016952D01*
X132273857Y-72064571D01*
X132231000Y-72112190D01*
X132188142Y-72207428D01*
X132188142Y-72397904D01*
X132231000Y-72493142D01*
X132273857Y-72540761D01*
X132359571Y-72588380D01*
X132531000Y-72588380D01*
X132616714Y-72540761D01*
X132659571Y-72493142D01*
X132702428Y-72397904D01*
X132702428Y-72207428D01*
X132659571Y-72112190D01*
X132616714Y-72064571D01*
X132531000Y-72016952D01*
X133473857Y-71588380D02*
X133302428Y-71588380D01*
X133216714Y-71636000D01*
X133173857Y-71683619D01*
X133088142Y-71826476D01*
X133045285Y-72016952D01*
X133045285Y-72397904D01*
X133088142Y-72493142D01*
X133131000Y-72540761D01*
X133216714Y-72588380D01*
X133388142Y-72588380D01*
X133473857Y-72540761D01*
X133516714Y-72493142D01*
X133559571Y-72397904D01*
X133559571Y-72159809D01*
X133516714Y-72064571D01*
X133473857Y-72016952D01*
X133388142Y-71969333D01*
X133216714Y-71969333D01*
X133131000Y-72016952D01*
X133088142Y-72064571D01*
X133045285Y-72159809D01*
X134373857Y-71588380D02*
X133945285Y-71588380D01*
X133902428Y-72064571D01*
X133945285Y-72016952D01*
X134031000Y-71969333D01*
X134245285Y-71969333D01*
X134331000Y-72016952D01*
X134373857Y-72064571D01*
X134416714Y-72159809D01*
X134416714Y-72397904D01*
X134373857Y-72493142D01*
X134331000Y-72540761D01*
X134245285Y-72588380D01*
X134031000Y-72588380D01*
X133945285Y-72540761D01*
X133902428Y-72493142D01*
X134973857Y-71588380D02*
X135059571Y-71588380D01*
X135145285Y-71636000D01*
X135188142Y-71683619D01*
X135231000Y-71778857D01*
X135273857Y-71969333D01*
X135273857Y-72207428D01*
X135231000Y-72397904D01*
X135188142Y-72493142D01*
X135145285Y-72540761D01*
X135059571Y-72588380D01*
X134973857Y-72588380D01*
X134888142Y-72540761D01*
X134845285Y-72493142D01*
X134802428Y-72397904D01*
X134759571Y-72207428D01*
X134759571Y-71969333D01*
X134802428Y-71778857D01*
X134845285Y-71683619D01*
X134888142Y-71636000D01*
X134973857Y-71588380D01*
X135659571Y-72207428D02*
X136345285Y-72207428D01*
X136773857Y-72588380D02*
X136773857Y-71588380D01*
X137116714Y-71588380D01*
X137202428Y-71636000D01*
X137245285Y-71683619D01*
X137288142Y-71778857D01*
X137288142Y-71921714D01*
X137245285Y-72016952D01*
X137202428Y-72064571D01*
X137116714Y-72112190D01*
X136773857Y-72112190D01*
X138188142Y-72493142D02*
X138145285Y-72540761D01*
X138016714Y-72588380D01*
X137931000Y-72588380D01*
X137802428Y-72540761D01*
X137716714Y-72445523D01*
X137673857Y-72350285D01*
X137631000Y-72159809D01*
X137631000Y-72016952D01*
X137673857Y-71826476D01*
X137716714Y-71731238D01*
X137802428Y-71636000D01*
X137931000Y-71588380D01*
X138016714Y-71588380D01*
X138145285Y-71636000D01*
X138188142Y-71683619D01*
X138959571Y-71921714D02*
X138959571Y-72588380D01*
X138745285Y-71540761D02*
X138531000Y-72255047D01*
X139088142Y-72255047D01*
X99015247Y-63814478D02*
X99777152Y-63814478D01*
X99396200Y-64195430D02*
X99396200Y-63433526D01*
X99012347Y-83144628D02*
X99774252Y-83144628D01*
X99393300Y-83525580D02*
X99393300Y-82763676D01*
X166398647Y-64072398D02*
X167160552Y-64072398D01*
X166373147Y-83130428D02*
X167135052Y-83130428D01*
%TO.C,U2*%
D11*
X159359596Y-46908881D02*
X159359596Y-47718405D01*
X159407215Y-47813643D01*
X159454834Y-47861262D01*
X159550072Y-47908881D01*
X159740548Y-47908881D01*
X159835786Y-47861262D01*
X159883405Y-47813643D01*
X159931024Y-47718405D01*
X159931024Y-46908881D01*
X160359596Y-47004120D02*
X160407215Y-46956501D01*
X160502453Y-46908881D01*
X160740548Y-46908881D01*
X160835786Y-46956501D01*
X160883405Y-47004120D01*
X160931024Y-47099358D01*
X160931024Y-47194596D01*
X160883405Y-47337453D01*
X160311977Y-47908881D01*
X160931024Y-47908881D01*
%TO.C,A2*%
X109513666Y-109807285D02*
X109513666Y-109331095D01*
X109799380Y-109902523D02*
X108799380Y-109569190D01*
X109799380Y-109235857D01*
X108894619Y-108950142D02*
X108847000Y-108902523D01*
X108799380Y-108807285D01*
X108799380Y-108569190D01*
X108847000Y-108473952D01*
X108894619Y-108426333D01*
X108989857Y-108378714D01*
X109085095Y-108378714D01*
X109227952Y-108426333D01*
X109799380Y-108997761D01*
X109799380Y-108378714D01*
%TO.C,J10*%
X134528380Y-123440523D02*
X135242666Y-123440523D01*
X135385523Y-123488142D01*
X135480761Y-123583380D01*
X135528380Y-123726238D01*
X135528380Y-123821476D01*
X135528380Y-122440523D02*
X135528380Y-123011952D01*
X135528380Y-122726238D02*
X134528380Y-122726238D01*
X134671238Y-122821476D01*
X134766476Y-122916714D01*
X134814095Y-123011952D01*
X134528380Y-121821476D02*
X134528380Y-121726238D01*
X134576000Y-121631000D01*
X134623619Y-121583380D01*
X134718857Y-121535761D01*
X134909333Y-121488142D01*
X135147428Y-121488142D01*
X135337904Y-121535761D01*
X135433142Y-121583380D01*
X135480761Y-121631000D01*
X135528380Y-121726238D01*
X135528380Y-121821476D01*
X135480761Y-121916714D01*
X135433142Y-121964333D01*
X135337904Y-122011952D01*
X135147428Y-122059571D01*
X134909333Y-122059571D01*
X134718857Y-122011952D01*
X134623619Y-121964333D01*
X134576000Y-121916714D01*
X134528380Y-121821476D01*
%TD*%
M02*
