M48
; DRILL file {KiCad (5.1.6)-1} date 07/21/20 18:14:18
; FORMAT={-:-/ absolute / inch / decimal}
; #@! TF.CreationDate,2020-07-21T18:14:18+08:00
; #@! TF.GenerationSoftware,Kicad,Pcbnew,(5.1.6)-1
; #@! TF.FileFunction,Plated,1,2,PTH
FMAT,2
INCH
T1C0.0157
T2C0.0300
T3C0.0315
T4C0.0394
T5C0.0433
T6C0.0598
T7C0.0600
%
G90
G05
T1
X4.7843Y-3.9607
T2
X4.455Y-4.8636
X4.555Y-3.84
X4.555Y-4.8636
X4.655Y-3.84
X4.655Y-4.8636
X4.755Y-3.84
X4.755Y-4.8636
X4.855Y-3.84
X4.855Y-4.8636
X4.955Y-4.8636
T3
X5.737Y-1.761
X5.737Y-1.961
X5.837Y-1.861
X5.2822Y-1.845
X5.42Y-1.845
T4
X6.08Y-4.828
X6.18Y-4.828
X6.28Y-4.828
X5.355Y-4.055
X5.355Y-4.655
X5.455Y-4.055
X5.455Y-4.655
X5.555Y-4.055
X5.555Y-4.655
X5.655Y-4.055
X5.655Y-4.655
X5.755Y-4.055
X5.755Y-4.655
X5.855Y-4.055
X5.855Y-4.655
X5.955Y-4.055
X5.955Y-4.655
X6.055Y-4.055
X6.055Y-4.655
X6.155Y-4.055
X6.155Y-4.655
X6.255Y-4.055
X6.255Y-4.655
X6.355Y-4.055
X6.355Y-4.655
X6.455Y-4.055
X6.455Y-4.655
X6.555Y-4.055
X6.555Y-4.655
X6.655Y-4.055
X6.655Y-4.655
X6.755Y-4.055
X6.755Y-4.655
X6.57Y-4.828
X6.67Y-4.828
X6.77Y-4.828
X4.14Y-3.815
X4.14Y-3.915
X4.14Y-4.015
X4.14Y-4.115
X5.427Y-4.828
X5.527Y-4.828
X5.627Y-4.828
X5.727Y-4.828
X5.827Y-4.828
X4.96Y-1.67
X4.96Y-1.77
X4.96Y-1.87
X6.992Y-3.257
X7.092Y-3.257
X7.192Y-3.257
X7.292Y-3.257
X7.392Y-3.257
X4.14Y-4.325
X4.14Y-4.425
X4.14Y-4.525
X4.14Y-4.625
X4.14Y-4.725
X4.14Y-4.825
X5.265Y-3.835
X5.365Y-3.835
X5.465Y-3.835
X5.565Y-3.835
X5.665Y-3.835
X5.765Y-3.835
X5.865Y-3.835
X5.965Y-3.835
X6.065Y-3.835
X6.165Y-3.835
X6.265Y-3.835
X6.365Y-3.835
X6.465Y-3.835
X6.565Y-3.835
X6.665Y-3.835
X6.765Y-3.835
X6.865Y-3.835
T5
X7.0626Y-2.461
X7.0626Y-2.6381
X7.3185Y-2.461
X7.3185Y-2.6381
X7.0651Y-2.1363
X7.0651Y-2.3135
X7.321Y-2.1363
X7.321Y-2.3135
X7.0601Y-2.7813
X7.0601Y-2.9585
X7.316Y-2.7813
X7.316Y-2.9585
T6
X4.455Y-1.765
X4.655Y-1.765
T7
X3.84Y-2.46
X3.84Y-3.22
X6.69Y-2.46
X6.69Y-3.22
T0
M30
