%TF.GenerationSoftware,KiCad,Pcbnew,(5.1.6)-1*%
%TF.CreationDate,2020-07-21T16:26:21+08:00*%
%TF.ProjectId,Egg_segregator,4567675f-7365-4677-9265-6761746f722e,rev?*%
%TF.SameCoordinates,Original*%
%TF.FileFunction,Paste,Top*%
%TF.FilePolarity,Positive*%
%FSLAX46Y46*%
G04 Gerber Fmt 4.6, Leading zero omitted, Abs format (unit mm)*
G04 Created by KiCad (PCBNEW (5.1.6)-1) date 2020-07-21 16:26:21*
%MOMM*%
%LPD*%
G01*
G04 APERTURE LIST*
%ADD10R,2.180000X3.120000*%
%ADD11R,2.700000X3.600000*%
%ADD12R,1.060000X0.650000*%
G04 APERTURE END LIST*
%TO.C,C1*%
G36*
G01*
X164522999Y-49853000D02*
X165423001Y-49853000D01*
G75*
G02*
X165673000Y-50102999I0J-249999D01*
G01*
X165673000Y-50753001D01*
G75*
G02*
X165423001Y-51003000I-249999J0D01*
G01*
X164522999Y-51003000D01*
G75*
G02*
X164273000Y-50753001I0J249999D01*
G01*
X164273000Y-50102999D01*
G75*
G02*
X164522999Y-49853000I249999J0D01*
G01*
G37*
G36*
G01*
X164522999Y-47803000D02*
X165423001Y-47803000D01*
G75*
G02*
X165673000Y-48052999I0J-249999D01*
G01*
X165673000Y-48703001D01*
G75*
G02*
X165423001Y-48953000I-249999J0D01*
G01*
X164522999Y-48953000D01*
G75*
G02*
X164273000Y-48703001I0J249999D01*
G01*
X164273000Y-48052999D01*
G75*
G02*
X164522999Y-47803000I249999J0D01*
G01*
G37*
%TD*%
%TO.C,C2*%
G36*
G01*
X156178999Y-47828400D02*
X157079001Y-47828400D01*
G75*
G02*
X157329000Y-48078399I0J-249999D01*
G01*
X157329000Y-48728401D01*
G75*
G02*
X157079001Y-48978400I-249999J0D01*
G01*
X156178999Y-48978400D01*
G75*
G02*
X155929000Y-48728401I0J249999D01*
G01*
X155929000Y-48078399D01*
G75*
G02*
X156178999Y-47828400I249999J0D01*
G01*
G37*
G36*
G01*
X156178999Y-49878400D02*
X157079001Y-49878400D01*
G75*
G02*
X157329000Y-50128399I0J-249999D01*
G01*
X157329000Y-50778401D01*
G75*
G02*
X157079001Y-51028400I-249999J0D01*
G01*
X156178999Y-51028400D01*
G75*
G02*
X155929000Y-50778401I0J249999D01*
G01*
X155929000Y-50128399D01*
G75*
G02*
X156178999Y-49878400I249999J0D01*
G01*
G37*
%TD*%
D10*
%TO.C,D1*%
X145486000Y-39624000D03*
X152456000Y-39624000D03*
%TD*%
D11*
%TO.C,L1*%
X164513000Y-41021000D03*
X156213000Y-41021000D03*
%TD*%
%TO.C,R1*%
G36*
G01*
X185403500Y-80267000D02*
X184928500Y-80267000D01*
G75*
G02*
X184691000Y-80029500I0J237500D01*
G01*
X184691000Y-79454500D01*
G75*
G02*
X184928500Y-79217000I237500J0D01*
G01*
X185403500Y-79217000D01*
G75*
G02*
X185641000Y-79454500I0J-237500D01*
G01*
X185641000Y-80029500D01*
G75*
G02*
X185403500Y-80267000I-237500J0D01*
G01*
G37*
G36*
G01*
X185403500Y-78517000D02*
X184928500Y-78517000D01*
G75*
G02*
X184691000Y-78279500I0J237500D01*
G01*
X184691000Y-77704500D01*
G75*
G02*
X184928500Y-77467000I237500J0D01*
G01*
X185403500Y-77467000D01*
G75*
G02*
X185641000Y-77704500I0J-237500D01*
G01*
X185641000Y-78279500D01*
G75*
G02*
X185403500Y-78517000I-237500J0D01*
G01*
G37*
%TD*%
%TO.C,R2*%
G36*
G01*
X182482500Y-78517000D02*
X182007500Y-78517000D01*
G75*
G02*
X181770000Y-78279500I0J237500D01*
G01*
X181770000Y-77704500D01*
G75*
G02*
X182007500Y-77467000I237500J0D01*
G01*
X182482500Y-77467000D01*
G75*
G02*
X182720000Y-77704500I0J-237500D01*
G01*
X182720000Y-78279500D01*
G75*
G02*
X182482500Y-78517000I-237500J0D01*
G01*
G37*
G36*
G01*
X182482500Y-80267000D02*
X182007500Y-80267000D01*
G75*
G02*
X181770000Y-80029500I0J237500D01*
G01*
X181770000Y-79454500D01*
G75*
G02*
X182007500Y-79217000I237500J0D01*
G01*
X182482500Y-79217000D01*
G75*
G02*
X182720000Y-79454500I0J-237500D01*
G01*
X182720000Y-80029500D01*
G75*
G02*
X182482500Y-80267000I-237500J0D01*
G01*
G37*
%TD*%
%TO.C,R3*%
G36*
G01*
X179561500Y-80267000D02*
X179086500Y-80267000D01*
G75*
G02*
X178849000Y-80029500I0J237500D01*
G01*
X178849000Y-79454500D01*
G75*
G02*
X179086500Y-79217000I237500J0D01*
G01*
X179561500Y-79217000D01*
G75*
G02*
X179799000Y-79454500I0J-237500D01*
G01*
X179799000Y-80029500D01*
G75*
G02*
X179561500Y-80267000I-237500J0D01*
G01*
G37*
G36*
G01*
X179561500Y-78517000D02*
X179086500Y-78517000D01*
G75*
G02*
X178849000Y-78279500I0J237500D01*
G01*
X178849000Y-77704500D01*
G75*
G02*
X179086500Y-77467000I237500J0D01*
G01*
X179561500Y-77467000D01*
G75*
G02*
X179799000Y-77704500I0J-237500D01*
G01*
X179799000Y-78279500D01*
G75*
G02*
X179561500Y-78517000I-237500J0D01*
G01*
G37*
%TD*%
%TO.C,R4*%
G36*
G01*
X153305500Y-49753000D02*
X153780500Y-49753000D01*
G75*
G02*
X154018000Y-49990500I0J-237500D01*
G01*
X154018000Y-50565500D01*
G75*
G02*
X153780500Y-50803000I-237500J0D01*
G01*
X153305500Y-50803000D01*
G75*
G02*
X153068000Y-50565500I0J237500D01*
G01*
X153068000Y-49990500D01*
G75*
G02*
X153305500Y-49753000I237500J0D01*
G01*
G37*
G36*
G01*
X153305500Y-48003000D02*
X153780500Y-48003000D01*
G75*
G02*
X154018000Y-48240500I0J-237500D01*
G01*
X154018000Y-48815500D01*
G75*
G02*
X153780500Y-49053000I-237500J0D01*
G01*
X153305500Y-49053000D01*
G75*
G02*
X153068000Y-48815500I0J237500D01*
G01*
X153068000Y-48240500D01*
G75*
G02*
X153305500Y-48003000I237500J0D01*
G01*
G37*
%TD*%
D12*
%TO.C,U2*%
X159009000Y-48834000D03*
X159009000Y-49784000D03*
X159009000Y-50734000D03*
X161209000Y-50734000D03*
X161209000Y-48834000D03*
X161209000Y-49784000D03*
%TD*%
M02*
